solid CATIA STL
  facet normal  0.000000e+000  0.000000e+000  1.000000e+000
    outer loop
      vertex -1.795000e+002 -1.625000e+002  3.000000e+000
      vertex  1.325000e+002 -1.625000e+002  3.000000e+000
      vertex -1.795000e+002  1.625000e+002  3.000000e+000
    endloop
  endfacet
  facet normal  -0.000000e+000  0.000000e+000  1.000000e+000
    outer loop
      vertex -1.795000e+002  1.625000e+002  3.000000e+000
      vertex  1.325000e+002 -1.625000e+002  3.000000e+000
      vertex  1.325000e+002  1.625000e+002  3.000000e+000
    endloop
  endfacet
  facet normal  0.000000e+000  0.000000e+000 -1.000000e+000
    outer loop
      vertex -1.795000e+002 -1.625000e+002  0.000000e+000
      vertex -1.795000e+002  1.625000e+002  0.000000e+000
      vertex  1.325000e+002 -1.625000e+002  0.000000e+000
    endloop
  endfacet
  facet normal  0.000000e+000  0.000000e+000 -1.000000e+000
    outer loop
      vertex  1.325000e+002 -1.625000e+002  0.000000e+000
      vertex -1.795000e+002  1.625000e+002  0.000000e+000
      vertex  1.325000e+002  1.625000e+002  0.000000e+000
    endloop
  endfacet
  facet normal  0.000000e+000  1.000000e+000  0.000000e+000
    outer loop
      vertex -1.795000e+002  1.625000e+002  3.000000e+000
      vertex  1.325000e+002  1.625000e+002  3.000000e+000
      vertex -1.795000e+002  1.625000e+002  0.000000e+000
    endloop
  endfacet
  facet normal  0.000000e+000  1.000000e+000  0.000000e+000
    outer loop
      vertex -1.795000e+002  1.625000e+002  0.000000e+000
      vertex  1.325000e+002  1.625000e+002  3.000000e+000
      vertex  1.325000e+002  1.625000e+002  0.000000e+000
    endloop
  endfacet
  facet normal  9.999999e-001  0.000000e+000  0.000000e+000
    outer loop
      vertex  1.325000e+002 -1.625000e+002  3.000000e+000
      vertex  1.325000e+002 -1.625000e+002  0.000000e+000
      vertex  1.325000e+002  1.625000e+002  3.000000e+000
    endloop
  endfacet
  facet normal  9.999999e-001  0.000000e+000  0.000000e+000
    outer loop
      vertex  1.325000e+002  1.625000e+002  3.000000e+000
      vertex  1.325000e+002 -1.625000e+002  0.000000e+000
      vertex  1.325000e+002  1.625000e+002  0.000000e+000
    endloop
  endfacet
  facet normal  0.000000e+000 -1.000000e+000  0.000000e+000
    outer loop
      vertex  1.325000e+002 -1.625000e+002  3.000000e+000
      vertex -1.795000e+002 -1.625000e+002  3.000000e+000
      vertex  1.325000e+002 -1.625000e+002  0.000000e+000
    endloop
  endfacet
  facet normal  0.000000e+000 -1.000000e+000  0.000000e+000
    outer loop
      vertex  1.325000e+002 -1.625000e+002  0.000000e+000
      vertex -1.795000e+002 -1.625000e+002  3.000000e+000
      vertex -1.795000e+002 -1.625000e+002  0.000000e+000
    endloop
  endfacet
  facet normal -9.999999e-001  0.000000e+000  0.000000e+000
    outer loop
      vertex -1.795000e+002  1.625000e+002  3.000000e+000
      vertex -1.795000e+002  1.625000e+002  0.000000e+000
      vertex -1.795000e+002 -1.625000e+002  3.000000e+000
    endloop
  endfacet
  facet normal -9.999999e-001  0.000000e+000  0.000000e+000
    outer loop
      vertex -1.795000e+002 -1.625000e+002  3.000000e+000
      vertex -1.795000e+002  1.625000e+002  0.000000e+000
      vertex -1.795000e+002 -1.625000e+002  0.000000e+000
    endloop
  endfacet
endsolid CATIA STL
